<?xml version="1.0" encoding="UTF-8" standalone="no"?>
<svg
   viewBox="0 0 40 40"
   version="1.1"
   id="pluginIcon"
   xmlns="http://www.w3.org/2000/svg">
  <path
     id="rect1"
     style="fill:#4285f4"
     d="m 5,0 h 30 c 2.77,0 5,2.23 5,5 v 30 c 0,2.77 -2.23,5 -5,5 H 5 C 2.23,40 0,37.77 0,35 V 5 C 0,2.23 2.23,0 5,0 Z" />
  <defs
     id="defs2">
    <rect
       x="9.9771167"
       y="9.2448513"
       width="20"
       height="23.707094"
       id="rect3" />
    <linearGradient
       id="grad1"
       x1="0%"
       y1="0%"
       x2="100%"
       y2="0%">
      <stop
         offset="0%"
         style="stop-color:#7c2ae8;stop-opacity:0.5"
         id="stop1" />
      <stop
         offset="100%"
         style="stop-color:white;stop-opacity:0.5"
         id="stop2" />
    </linearGradient>
  </defs>
  <path
     id="rect2"
     style="fill:url(#grad1)"
     d="m 5,0 h 30 c 2.77,0 5,2.23 5,5 v 30 c 0,2.77 -2.23,5 -5,5 H 5 C 2.23,40 0,37.77 0,35 V 5 C 0,2.23 2.23,0 5,0 Z" />
  <text
     xml:space="preserve"
     id="text1"
     style="white-space:pre;shape-inside:url(#rect3);fill:#000000" />
  <path
     style="font-size:21.3333px;-inkscape-font-specification:'sans-serif, Normal';fill:#f9f9f9"
     d="M 5.2165246,26.681921 H 2.7269452 V 23.713176 H 5.2165246 Z M 15.820675,26.577755 q -0.552083,0.145833 -1.208332,0.239582 -0.645832,0.09375 -1.156248,0.09375 -1.781247,0 -2.708329,-0.958332 Q 9.8206841,24.994424 9.8206841,22.879844 V 16.692353 H 8.4977696 v -1.64583 h 1.3229145 v -3.343745 h 1.9583299 v 3.343745 h 4.041661 v 1.64583 h -4.041661 v 5.302075 q 0,0.916666 0.04167,1.437498 0.04167,0.510416 0.291666,0.958332 0.229166,0.416666 0.624999,0.614582 0.40625,0.1875 1.229165,0.1875 0.479166,0 0.999998,-0.135416 0.520833,-0.145834 0.749999,-0.239583 h 0.104167 z m 9.624984,-9.395819 h -0.104166 q -0.437499,-0.104166 -0.854165,-0.145833 -0.40625,-0.05208 -0.968749,-0.05208 -0.906248,0 -1.749997,0.406249 -0.843749,0.395833 -1.624998,1.031248 v 8.260404 h -1.95833 V 15.046523 h 1.95833 v 1.718747 q 1.166665,-0.937499 2.052081,-1.322915 0.895831,-0.395832 1.822913,-0.395832 0.510416,0 0.739582,0.03125 0.229167,0.02083 0.687499,0.09375 z m 11.916649,9.499985 h -2.468746 l -3.302079,-4.468743 -3.322911,4.468743 h -2.281246 l 4.541659,-5.802074 -4.499993,-5.833324 h 2.468746 l 3.281245,4.395826 3.291662,-4.395826 h 2.291663 l -4.57291,5.729157 z"
     id="text4"
     aria-label=".trx" />
</svg>
